<svg width="123" height="24" viewBox="0 0 123 24" fill="none" xmlns="http://www.w3.org/2000/svg">
<path d="M4.18399 9.13308L8.52726 14.0779C8.86718 14.4649 9.46238 14.4619 9.79859 14.0716L14.0575 9.12677C14.5397 8.56691 14.1499 7.68863 13.4191 7.68863H4.81692C4.08226 7.68863 3.69385 8.57506 4.18399 9.13308Z" fill="white"/>
<path d="M11.412 3.85168C11.412 5.15048 10.3794 6.20336 9.10573 6.20336C7.83202 6.20336 6.79947 5.15048 6.79947 3.85168C6.79947 2.55288 7.83202 1.5 9.10573 1.5C10.3794 1.5 11.412 2.55288 11.412 3.85168Z" fill="white"/>
<path d="M7.84114 21.9292L0.430319 13.5695C-0.153771 12.9106 -0.14188 11.9042 0.457606 11.2599C1.10505 10.564 2.18862 10.552 2.85078 11.2333L7.99972 16.5314C8.20682 16.7445 8.46981 16.8936 8.75651 16.9611C8.98582 17.0151 9.22491 17.0152 9.45423 16.9613C9.74189 16.8936 10.0046 16.7435 10.2115 16.5288L15.3306 11.2139C16.0028 10.516 17.1129 10.5407 17.7547 11.2678C18.3238 11.9126 18.3243 12.8914 17.7557 13.5368L10.3659 21.9252C9.69216 22.69 8.51726 22.6919 7.84114 21.9292Z" fill="white"/>
<path d="M27.5816 19V5H34.2016C35.7483 5 37.1083 5.28667 38.2816 5.86C39.455 6.43333 40.3683 7.24 41.0216 8.28C41.6883 9.32 42.0216 10.56 42.0216 12C42.0216 13.4267 41.6883 14.6667 41.0216 15.72C40.3683 16.76 39.455 17.5667 38.2816 18.14C37.1083 18.7133 35.7483 19 34.2016 19H27.5816ZM31.5416 15.84H34.0416C34.8416 15.84 35.535 15.6933 36.1216 15.4C36.7216 15.0933 37.1883 14.6533 37.5216 14.08C37.855 13.4933 38.0216 12.8 38.0216 12C38.0216 11.1867 37.855 10.4933 37.5216 9.92C37.1883 9.34667 36.7216 8.91333 36.1216 8.62C35.535 8.31333 34.8416 8.16 34.0416 8.16H31.5416V15.84ZM47.7451 10.42H54.2451V13.38H47.7451V10.42ZM48.0251 15.94H55.3451V19H44.1051V5H55.0851V8.06H48.0251V15.94ZM61.2226 11.14H67.6826V14.2H61.2226V11.14ZM61.5026 19H57.5426V5H68.5226V8.06H61.5026V19ZM70.3746 19V5H74.3346V19H70.3746ZM77.152 19V5H80.412L88.132 14.32H86.592V5H90.472V19H87.212L79.492 9.68H81.032V19H77.152ZM96.9052 10.42H103.405V13.38H96.9052V10.42ZM97.1852 15.94H104.505V19H93.2652V5H104.245V8.06H97.1852V15.94ZM106.703 19V5H113.323C114.869 5 116.229 5.28667 117.403 5.86C118.576 6.43333 119.489 7.24 120.143 8.28C120.809 9.32 121.143 10.56 121.143 12C121.143 13.4267 120.809 14.6667 120.143 15.72C119.489 16.76 118.576 17.5667 117.403 18.14C116.229 18.7133 114.869 19 113.323 19H106.703ZM110.663 15.84H113.163C113.963 15.84 114.656 15.6933 115.243 15.4C115.843 15.0933 116.309 14.6533 116.643 14.08C116.976 13.4933 117.143 12.8 117.143 12C117.143 11.1867 116.976 10.4933 116.643 9.92C116.309 9.34667 115.843 8.91333 115.243 8.62C114.656 8.31333 113.963 8.16 113.163 8.16H110.663V15.84Z" fill="white"/>
</svg>
